# xmcd CD database file
#
# Track frame offsets:
#	150
#	28000
#	51486
#	75017
#	83928
#	110880
#	132730
#	153019
#	173948
#	194238
#	209353
#	227836
#	249800
#	266852
#	289877
#
# Disc length: 4077 seconds
#
# Revision: 8
# Processed by: cddbd v1.5.2PL0 Copyright (c) Steve Scherf et al.
# Submitted via: CDex 1.70beta2
#
DISCID=dc0feb0f
DTITLE=Various Artist - Silicon Warfare
DYEAR=1998
DGENRE=Industrial
TTITLE0=Assemblage 23 - Purgatory
TTITLE1=Aghast View - Truthlike (rapture mix)
TTITLE2=Fockewolf - Regrets Bitter Empire
TTITLE3=Dead Language - Pulse!
TTITLE4=Thine Eyes - If Rainbows Had Shadows
TTITLE5=Diverje - Data Stream
TTITLE6=Razor Skyline - Torture Chamber
TTITLE7=Manhole Vortex - Holy Trinity
TTITLE8=Battery - Theme (rivethead 1 mix)
TTITLE9=Noxious Emotion - M.A.R.K.13
TTITLE10=SMP - Militia Love
TTITLE11=sexwithsarah - 222 (radio edit)
TTITLE12=Produkt 13 - Burning Sin
TTITLE13=Triple Point - Lorrie Pours Out (Thine Eyes mix)
TTITLE14=Meat Distributors - This Disease
EXTD=YEAR: 1998
EXTT0=
EXTT1=
EXTT2=
EXTT3=
EXTT4=
EXTT5=
EXTT6=
EXTT7=
EXTT8=
EXTT9=
EXTT10=
EXTT11=
EXTT12=
EXTT13=
EXTT14=
PLAYORDER=
